<?xml version="1.0" encoding="utf-8"?>
<!-- Generator: Adobe Illustrator 23.0.1, SVG Export Plug-In . SVG Version: 6.00 Build 0)  -->
<svg version="1.1" id="Capa_1" xmlns="http://www.w3.org/2000/svg" xmlns:xlink="http://www.w3.org/1999/xlink" x="0px" y="0px"
	 viewBox="0 0 960 960" style="enable-background:new 0 0 960 960;" xml:space="preserve">
<style type="text/css">
	.st0{fill:#FCEE21;}
</style>
<g>
	<title>clima4</title>
	<circle class="st0" cx="482.9" cy="480" r="141.6"/>
	<path class="st0" d="M482.9,284.7L482.9,284.7c-9.4,0-17-7.6-17-17l0,0V147c0-9.4,7.6-17,17-17l0,0c9.4,0,17,7.6,17,17l0,0v120.8
		C499.8,277.1,492.2,284.7,482.9,284.7z"/>
	<path class="st0" d="M482.9,830L482.9,830c-9.4,0-17-7.6-17-17l0,0V692.3c0-9.4,7.6-17,17-17l0,0c9.4,0,17,7.6,17,17l0,0V813
		C499.8,822.5,492.2,830,482.9,830z"/>
	<path class="st0" d="M621,341.9L621,341.9c-6.6-6.6-6.6-17.4,0-24l85.4-85.4c6.6-6.7,17.3-6.7,24,0l0,0l0,0c6.7,6.7,6.7,17.3,0,24
		l0,0L645,341.9C638.4,348.5,627.6,348.5,621,341.9z"/>
	<path class="st0" d="M235.4,727.5L235.4,727.5c-6.6-6.6-6.6-17.3,0-24l0,0l85.4-85.4c6.7-6.6,17.4-6.6,24,0l0,0
		c6.6,6.6,6.6,17.4,0,24l-85.4,85.4C252.7,734.1,242.1,734.1,235.4,727.5L235.4,727.5z"/>
	<path class="st0" d="M678.2,480L678.2,480c0-9.4,7.6-17,17-17l0,0h120.8c9.4,0,17,7.6,17,17l0,0c0,9.4-7.6,17-17,17l0,0H695.1
		C685.8,497,678.2,489.4,678.2,480z"/>
	<path class="st0" d="M132.9,480L132.9,480c0-9.4,7.6-17,17-17l0,0h120.7c9.4,0,17,7.6,17,17l0,0c0,9.4-7.6,17-17,17l0,0H149.8
		C140.5,497,132.9,489.4,132.9,480z"/>
	<path class="st0" d="M621,618.2L621,618.2c6.7-6.6,17.4-6.6,24,0l85.4,85.4c6.7,6.6,6.7,17.3,0,24l0,0l0,0c-6.6,6.6-17.3,6.6-24,0
		l0,0L621,642.1C614.4,635.5,614.4,624.7,621,618.2z"/>
	<path class="st0" d="M235.4,232.6L235.4,232.6c6.7-6.7,17.3-6.7,24,0l0,0l85.4,85.4c6.6,6.6,6.6,17.4,0,24l0,0
		c-6.6,6.7-17.4,6.7-24,0l-85.4-85.4C228.8,249.9,228.8,239.2,235.4,232.6C235.3,232.6,235.4,232.6,235.4,232.6z"/>
</g>
</svg>
