<svg id="Capa_1" data-name="Capa 1" xmlns="http://www.w3.org/2000/svg" viewBox="0 0 960 960"><defs><style>.cls-1{fill:#fcee21;}.cls-2{fill:#fff;}</style></defs><title>clima2</title><circle class="cls-1" cx="333.58" cy="440.64" r="102.56" transform="translate(-155.15 698.68) rotate(-80.71)"/><path class="cls-1" d="M333.58,299.12h0a12.3,12.3,0,0,1-12.3-12.29V199.36a12.3,12.3,0,0,1,12.3-12.29h0a12.29,12.29,0,0,1,12.29,12.29v87.47A12.29,12.29,0,0,1,333.58,299.12Z"/><path class="cls-1" d="M333.58,694.22h0a12.3,12.3,0,0,1-12.3-12.3V594.46a12.3,12.3,0,0,1,12.3-12.3h0a12.3,12.3,0,0,1,12.29,12.3v87.46A12.3,12.3,0,0,1,333.58,694.22Z"/><path class="cls-1" d="M433.65,340.57h0a12.27,12.27,0,0,1,0-17.38l61.84-61.85a12.3,12.3,0,0,1,17.39,0h0a12.3,12.3,0,0,1,0,17.39L451,340.57A12.29,12.29,0,0,1,433.65,340.57Z"/><path class="cls-1" d="M154.27,620h0a12.3,12.3,0,0,1,0-17.39l61.85-61.85a12.3,12.3,0,0,1,17.39,0h0a12.3,12.3,0,0,1,0,17.39L171.66,620A12.3,12.3,0,0,1,154.27,620Z"/><path class="cls-1" d="M475.1,440.64h0a12.29,12.29,0,0,1,12.29-12.29h87.47a12.29,12.29,0,0,1,12.29,12.29h0a12.3,12.3,0,0,1-12.29,12.3H487.39A12.3,12.3,0,0,1,475.1,440.64Z"/><path class="cls-1" d="M80,440.64h0a12.29,12.29,0,0,1,12.29-12.29h87.47a12.29,12.29,0,0,1,12.29,12.29h0a12.3,12.3,0,0,1-12.29,12.3H92.29A12.3,12.3,0,0,1,80,440.64Z"/><path class="cls-1" d="M433.65,540.71h0a12.29,12.29,0,0,1,17.38,0l61.85,61.85a12.3,12.3,0,0,1,0,17.39h0a12.3,12.3,0,0,1-17.39,0L433.65,558.1A12.28,12.28,0,0,1,433.65,540.71Z"/><path class="cls-1" d="M154.27,261.34h0a12.3,12.3,0,0,1,17.39,0l61.85,61.85a12.29,12.29,0,0,1,0,17.38h0a12.3,12.3,0,0,1-17.39,0l-61.85-61.84A12.3,12.3,0,0,1,154.27,261.34Z"/><path class="cls-2" d="M803.49,619.9c-.34,0-.64.1-1,.1A115.53,115.53,0,0,0,635,476.27a160.72,160.72,0,0,0-308.38,81c-.45,0-.89-.07-1.34-.07a107.89,107.89,0,0,0,0,215.78H803.49a76.52,76.52,0,0,0,0-153Z"/></svg>