<?xml version="1.0" encoding="utf-8"?>
<!-- Generator: Adobe Illustrator 23.0.1, SVG Export Plug-In . SVG Version: 6.00 Build 0)  -->
<svg version="1.1" id="Capa_1" xmlns="http://www.w3.org/2000/svg" xmlns:xlink="http://www.w3.org/1999/xlink" x="0px" y="0px"
	 viewBox="0 0 960 960" style="enable-background:new 0 0 960 960;" xml:space="preserve">
<style type="text/css">
	.st0{fill:#29BBF1;}
	.st1{fill:#FFFFFF;}
</style>
<title>clima3</title>
<path class="st0" d="M817.2,462.9c-0.3,0-0.5,0.1-0.8,0.1c20.8-48-1.3-103.9-49.3-124.7c-28.7-12.4-61.6-9.9-88.1,6.7
	c-27.6-67.5-104.7-99.8-172.2-72.2c-49.7,20.3-82.1,68.7-82,122.3c0,5.4,0.4,10.9,1.1,16.2c-0.4,0-0.7,0-1.1,0
	c-48.9,0-88.5,39.6-88.5,88.5s39.6,88.5,88.5,88.5h392.4c34.7,0.4,63.1-27.3,63.6-62c0.4-34.7-27.3-63.1-62-63.6
	C818.3,462.9,817.7,462.9,817.2,462.9L817.2,462.9z"/>
<path class="st1" d="M659.9,545.5c-0.3,0-0.6,0.1-1,0.1c25.1-57.9-1.5-125.2-59.4-150.3c-34.6-15-74.4-12-106.3,8.1
	c-32.9-81.4-125.5-120.8-206.9-88c-67.2,27.1-107.5,96.2-98.2,168c-0.4,0-0.9-0.1-1.3-0.1c-59,0.6-106.3,48.8-105.7,107.8
	c0.6,58.1,47.6,105.2,105.7,105.7h473.2c41.8-0.5,75.3-34.8,74.8-76.6C734.3,579.2,701,545.9,659.9,545.5L659.9,545.5z"/>
</svg>
