<?xml version="1.0" encoding="utf-8"?>
<!-- Generator: Adobe Illustrator 23.0.1, SVG Export Plug-In . SVG Version: 6.00 Build 0)  -->
<svg version="1.1" id="Capa_1" xmlns="http://www.w3.org/2000/svg" xmlns:xlink="http://www.w3.org/1999/xlink" x="0px" y="0px"
	 viewBox="0 0 960 960" style="enable-background:new 0 0 960 960;" xml:space="preserve">
<style type="text/css">
	.st0{fill:#E9E9E9;}
	.st1{fill:#84CBEF;}
</style>
<title>clima5</title>
<path class="st0" d="M787.6,402.2c-0.4,0-0.8,0.1-1.2,0.1c30.6-70.7-1.8-152.8-72.5-183.4c-42.2-18.3-90.8-14.6-129.8,9.9
	c-29.9-72.9-100.9-120.4-179.7-120.4c-107.3,0-194.3,87-194.3,194.3c0,8,0.6,16,1.6,23.9c-0.6,0-1.1-0.1-1.6-0.1
	c-71.9-0.6-130.8,57.2-131.4,129.1S136,586.3,208,586.9c0.8,0,1.5,0,2.3,0h577.4c51,0.5,92.8-40.4,93.3-91.4
	c0.5-51-40.4-92.8-91.4-93.3C788.9,402.2,788.3,402.2,787.6,402.2L787.6,402.2z"/>
<path class="st1" d="M336,814.5c-15.7,32.6-54.9,46.4-87.5,30.7s-46.4-54.9-30.7-87.5C233.5,725,335,665.3,335,665.3
	S351.7,781.9,336,814.5z"/>
<path class="st1" d="M499.1,814.5c-15.3,32.8-54.3,47.1-87.1,31.8s-47.1-54.3-31.8-87.1c0.2-0.5,0.5-1,0.7-1.4
	C396.5,725,498,665.3,498,665.3S514.8,781.9,499.1,814.5z"/>
<path class="st1" d="M664.5,814.5c-15.3,32.8-54.3,47.1-87.2,31.8s-47.1-54.3-31.8-87.2c0.2-0.5,0.5-1,0.7-1.4
	c15.7-32.6,117.2-92.4,117.2-92.4S680.2,781.9,664.5,814.5z"/>
</svg>
