<?xml version="1.0" encoding="utf-8"?>
<!-- Generator: Adobe Illustrator 23.0.1, SVG Export Plug-In . SVG Version: 6.00 Build 0)  -->
<svg version="1.1" id="Capa_1" xmlns="http://www.w3.org/2000/svg" xmlns:xlink="http://www.w3.org/1999/xlink" x="0px" y="0px"
	 viewBox="0 0 960 960" style="enable-background:new 0 0 960 960;" xml:space="preserve">
<style type="text/css">
	.st0{fill:#E9E9E9;}
	.st1{fill:#FCEE21;}
</style>
<title>clima6</title>
<path class="st0" d="M787.6,353.2c-0.4,0-0.8,0.1-1.2,0.1c30.6-70.7-1.8-152.8-72.5-183.4c-42.2-18.3-90.8-14.6-129.8,9.9
	c-29.1-70.7-98.5-120.5-179.7-120.5c-107.3,0-194.3,87-194.3,194.3c0,8,0.6,16,1.6,23.9c-0.6,0-1.1-0.1-1.6-0.1
	c-71.9,0-130.2,58.4-130.2,130.3c0,71.9,58.3,130.2,130.2,130.2h577.4c51,0,92.4-41.4,92.4-92.4S838.6,353.2,787.6,353.2
	L787.6,353.2z"/>
<polygon class="st1" points="436.4,593.8 386.4,746.1 455.4,746.1 410.7,900.7 573.6,682.4 489.5,682.4 521.3,593.8 "/>
</svg>
