<?xml version="1.0" encoding="utf-8"?>
<!-- Generator: Adobe Illustrator 23.0.1, SVG Export Plug-In . SVG Version: 6.00 Build 0)  -->
<svg version="1.1" id="Capa_1" xmlns="http://www.w3.org/2000/svg" xmlns:xlink="http://www.w3.org/1999/xlink" x="0px" y="0px"
	 viewBox="0 0 960 960" style="enable-background:new 0 0 960 960;" xml:space="preserve">
<style type="text/css">
	.st0{fill:#FFFFFF;}
	.st1{fill:#B9D7FF;}
	.st2{fill:#29BBF1;}
</style>
<title>clima13</title>
<path class="st0" d="M546.3,544.6V146.3c0-36.6-29.6-66.3-66.2-66.3c-36.6,0-66.3,29.6-66.3,66.2c0,0,0,0,0,0.1v398.4
	c-89,36.6-131.5,138.4-94.9,227.4s138.4,131.5,227.4,94.9c89-36.6,131.5-138.4,94.9-227.4C623.5,596.5,589.3,562.3,546.3,544.6z"/>
<path class="st1" d="M480,848.2c-78.5,0-142.4-63.9-142.4-142.4c-0.1-57.8,34.8-109.8,88.3-131.7l19.7-8.1V146.3
	c0-19,15.4-34.5,34.5-34.5c19,0,34.5,15.4,34.5,34.5v419.7l19.7,8.1c53.5,21.9,88.4,73.9,88.3,131.7
	C622.4,784.3,558.5,848.2,480,848.2z"/>
<path class="st2" d="M534.2,574l-19.7-8.1v-63.4h-68.9v63.4l-19.7,8.1c-53.5,21.9-88.4,73.9-88.3,131.7
	c0,78.5,63.9,142.4,142.4,142.4s142.4-63.9,142.4-142.4C622.5,648,587.6,595.9,534.2,574z"/>
<path class="st0" d="M480,778.1L480,778.1c-6.8,0-12.3-5.5-12.3-12.3V652c0-6.8,5.5-12.4,12.3-12.4l0,0c6.8,0,12.3,5.6,12.3,12.4
	v113.8C492.3,772.6,486.8,778.1,480,778.1z"/>
<path class="st0" d="M422.8,747.9L422.8,747.9c-3.8-5.6-2.4-13.3,3.2-17.2l94-64.2c5.6-3.8,13.3-2.4,17.2,3.2l0,0
	c3.9,5.6,2.4,13.3-3.2,17.2l-94,64.2C434.4,755,426.7,753.5,422.8,747.9C422.8,747.9,422.8,747.9,422.8,747.9z"/>
<path class="st0" d="M537.2,747.9L537.2,747.9c3.8-5.6,2.4-13.3-3.2-17.2l-94-64.2c-5.6-3.8-13.3-2.4-17.1,3.2l0,0
	c-3.8,5.6-2.4,13.3,3.2,17.2l94,64.2C525.7,755,533.3,753.5,537.2,747.9z"/>
</svg>
