<svg id="Capa_1" data-name="Capa 1" xmlns="http://www.w3.org/2000/svg" viewBox="0 0 960 960"><defs><style>.cls-1{fill:#fff;}</style></defs><title>clima11</title><path class="cls-1" d="M715.49,529c-.36,0-.69.1-1,.1A125.26,125.26,0,0,0,532.79,373.26,174.44,174.44,0,0,0,197,439.56,176.86,176.86,0,0,0,198.43,461c-.49,0-1-.08-1.45-.08a117,117,0,0,0,0,234H715.49a83,83,0,1,0,0-165.92Z"/><path class="cls-1" d="M651,293.86H385.83a14.38,14.38,0,0,1-14.38-14.38h0a14.38,14.38,0,0,1,14.38-14.39H651a14.39,14.39,0,0,1,14.39,14.39h0A14.38,14.38,0,0,1,651,293.86Z"/><path class="cls-1" d="M865.62,293.86H711.76a14.38,14.38,0,0,1-14.39-14.38h0a14.39,14.39,0,0,1,14.39-14.39H865.62A14.38,14.38,0,0,1,880,279.48h0A14.38,14.38,0,0,1,865.62,293.86Z"/><path class="cls-1" d="M759.88,382.8H601.25a14.38,14.38,0,0,1-14.38-14.38h0A14.38,14.38,0,0,1,601.25,354H759.88a14.39,14.39,0,0,1,14.39,14.39h0A14.38,14.38,0,0,1,759.88,382.8Z"/><path class="cls-1" d="M864.82,382.8H822.74a14.38,14.38,0,0,1-14.39-14.38h0A14.39,14.39,0,0,1,822.74,354h42.08a14.38,14.38,0,0,1,14.38,14.39h0A14.38,14.38,0,0,1,864.82,382.8Z"/><path class="cls-1" d="M864.82,556.77H601.25a14.38,14.38,0,0,1-14.38-14.39h0A14.38,14.38,0,0,1,601.25,528H864.82a14.38,14.38,0,0,1,14.38,14.38h0A14.38,14.38,0,0,1,864.82,556.77Z"/><path class="cls-1" d="M864.82,694.91H601.25a14.38,14.38,0,0,1-14.38-14.39h0a14.38,14.38,0,0,1,14.38-14.38H864.82a14.38,14.38,0,0,1,14.38,14.38h0A14.38,14.38,0,0,1,864.82,694.91Z"/></svg>